<mxfile host="Electron" modified="2023-11-08T10:38:09.791Z" agent="Mozilla/5.0 (Windows NT 10.0; Win64; x64) AppleWebKit/537.36 (KHTML, like Gecko) draw.io/22.0.3 Chrome/114.0.5735.289 Electron/25.8.4 Safari/537.36" etag="012bTx4pkFG7gdgvpkQj" version="22.0.3" type="device" pages="2">
  <diagram name="Page-1" id="13e1069c-82ec-6db2-03f1-153e76fe0fe0">
    <mxGraphModel dx="1674" dy="870" grid="1" gridSize="10" guides="1" tooltips="1" connect="1" arrows="1" fold="1" page="1" pageScale="1" pageWidth="1100" pageHeight="850" background="none" math="0" shadow="0">
      <root>
        <mxCell id="0" />
        <mxCell id="1" parent="0" />
        <mxCell id="7baba1c4bc27f4b0-2" value=":ServiceAcessGui-simulator&lt;br&gt;.Request&lt;br&gt;." style="shape=umlLifeline;perimeter=lifelinePerimeter;whiteSpace=wrap;html=1;container=1;collapsible=0;recursiveResize=0;outlineConnect=0;rounded=1;shadow=0;comic=0;labelBackgroundColor=none;strokeWidth=1;fontFamily=Verdana;fontSize=12;align=center;size=90;" parent="1" vertex="1">
          <mxGeometry x="220" y="70" width="110" height="630" as="geometry" />
        </mxCell>
        <mxCell id="7baba1c4bc27f4b0-10" value="" style="html=1;points=[];perimeter=orthogonalPerimeter;rounded=0;shadow=0;comic=0;labelBackgroundColor=none;strokeWidth=1;fontFamily=Verdana;fontSize=12;align=center;" parent="7baba1c4bc27f4b0-2" vertex="1">
          <mxGeometry x="50" y="150" width="10" height="350" as="geometry" />
        </mxCell>
        <mxCell id="WGYdtUEUaQrTIStyGSWO-20" value="disconnect" style="html=1;verticalAlign=bottom;endArrow=block;labelBackgroundColor=none;fontFamily=Verdana;fontSize=12;" parent="7baba1c4bc27f4b0-2" edge="1">
          <mxGeometry x="0.0828" relative="1" as="geometry">
            <mxPoint x="50" y="480" as="sourcePoint" />
            <mxPoint x="-64.5" y="480" as="targetPoint" />
            <Array as="points" />
            <mxPoint as="offset" />
          </mxGeometry>
        </mxCell>
        <mxCell id="7baba1c4bc27f4b0-3" value=":CSSctx&lt;br&gt;.ColdStorageService" style="shape=umlLifeline;perimeter=lifelinePerimeter;whiteSpace=wrap;html=1;container=1;collapsible=0;recursiveResize=0;outlineConnect=0;rounded=1;shadow=0;comic=0;labelBackgroundColor=none;strokeWidth=1;fontFamily=Verdana;fontSize=12;align=center;size=35;" parent="1" vertex="1">
          <mxGeometry x="440" y="90" width="405" height="700" as="geometry" />
        </mxCell>
        <mxCell id="7baba1c4bc27f4b0-13" value="" style="html=1;points=[];perimeter=orthogonalPerimeter;rounded=0;shadow=0;comic=0;labelBackgroundColor=none;strokeWidth=1;fontFamily=Verdana;fontSize=12;align=center;" parent="7baba1c4bc27f4b0-3" vertex="1">
          <mxGeometry x="197.5" y="70" width="10" height="400" as="geometry" />
        </mxCell>
        <mxCell id="WGYdtUEUaQrTIStyGSWO-18" value="" style="html=1;verticalAlign=bottom;endArrow=open;dashed=1;endSize=8;labelBackgroundColor=none;fontFamily=Verdana;fontSize=12;edgeStyle=elbowEdgeStyle;elbow=vertical;" parent="7baba1c4bc27f4b0-3" source="7baba1c4bc27f4b0-5" edge="1">
          <mxGeometry x="-0.2789" y="-1" relative="1" as="geometry">
            <mxPoint x="210" y="290" as="targetPoint" />
            <Array as="points" />
            <mxPoint x="259.5" y="290" as="sourcePoint" />
            <mxPoint as="offset" />
          </mxGeometry>
        </mxCell>
        <mxCell id="u2iDfoAtIh-SDBU8Mwto-3" value="enoughSpace/noSpace" style="edgeLabel;html=1;align=center;verticalAlign=middle;resizable=0;points=[];" parent="WGYdtUEUaQrTIStyGSWO-18" connectable="0" vertex="1">
          <mxGeometry x="0.451" relative="1" as="geometry">
            <mxPoint x="32" y="-20" as="offset" />
          </mxGeometry>
        </mxCell>
        <mxCell id="u2iDfoAtIh-SDBU8Mwto-1" value="alt" style="shape=umlFrame;whiteSpace=wrap;html=1;pointerEvents=0;recursiveResize=0;container=1;collapsible=0;width=50;" parent="7baba1c4bc27f4b0-3" vertex="1">
          <mxGeometry x="-360" y="300" width="765" height="135" as="geometry" />
        </mxCell>
        <mxCell id="WGYdtUEUaQrTIStyGSWO-26" value="ticket" style="html=1;verticalAlign=bottom;endArrow=open;dashed=1;endSize=8;labelBackgroundColor=none;fontFamily=Verdana;fontSize=12;edgeStyle=elbowEdgeStyle;elbow=vertical;" parent="u2iDfoAtIh-SDBU8Mwto-1" edge="1">
          <mxGeometry x="-0.6608" relative="1" as="geometry">
            <mxPoint x="557.5" y="100" as="targetPoint" />
            <Array as="points">
              <mxPoint x="633.3299999999999" y="100" />
            </Array>
            <mxPoint x="857" y="100" as="sourcePoint" />
            <mxPoint as="offset" />
          </mxGeometry>
        </mxCell>
        <mxCell id="WGYdtUEUaQrTIStyGSWO-24" value="generateticket" style="html=1;verticalAlign=bottom;endArrow=block;labelBackgroundColor=none;fontFamily=Verdana;fontSize=12;" parent="u2iDfoAtIh-SDBU8Mwto-1" edge="1">
          <mxGeometry x="-0.5594" y="1" relative="1" as="geometry">
            <mxPoint x="567.5" y="80" as="sourcePoint" />
            <mxPoint x="865" y="80" as="targetPoint" />
            <Array as="points" />
            <mxPoint as="offset" />
          </mxGeometry>
        </mxCell>
        <mxCell id="dP_4IrJM_J5E9Byek_nk-2" value="" style="endArrow=none;dashed=1;html=1;dashPattern=1 3;strokeWidth=2;rounded=0;exitX=-0.017;exitY=0.487;exitDx=0;exitDy=0;exitPerimeter=0;entryX=1.009;entryY=0.375;entryDx=0;entryDy=0;entryPerimeter=0;" parent="u2iDfoAtIh-SDBU8Mwto-1" target="u2iDfoAtIh-SDBU8Mwto-1" edge="1">
          <mxGeometry width="50" height="50" relative="1" as="geometry">
            <mxPoint x="0.004999999999881766" y="50" as="sourcePoint" />
            <mxPoint x="760" y="50" as="targetPoint" />
          </mxGeometry>
        </mxCell>
        <mxCell id="WGYdtUEUaQrTIStyGSWO-17" value="&lt;br&gt;&lt;b style=&quot;text-decoration-line: underline; font-style: italic;&quot;&gt;loadrejected&lt;/b&gt;" style="html=1;verticalAlign=bottom;endArrow=open;dashed=1;endSize=8;labelBackgroundColor=none;fontFamily=Verdana;fontSize=12;edgeStyle=elbowEdgeStyle;elbow=vertical;" parent="u2iDfoAtIh-SDBU8Mwto-1" edge="1">
          <mxGeometry x="-0.1667" relative="1" as="geometry">
            <mxPoint x="202.5" y="33.99999999999994" as="targetPoint" />
            <Array as="points">
              <mxPoint x="275.75" y="34" />
              <mxPoint x="201.25" y="44" />
            </Array>
            <mxPoint x="562.5" y="34" as="sourcePoint" />
            <mxPoint as="offset" />
          </mxGeometry>
        </mxCell>
        <mxCell id="dP_4IrJM_J5E9Byek_nk-5" value="[enoughSpace]" style="text;html=1;strokeColor=none;fillColor=none;align=center;verticalAlign=middle;whiteSpace=wrap;rounded=0;" parent="u2iDfoAtIh-SDBU8Mwto-1" vertex="1">
          <mxGeometry x="460" y="52.5" width="60" height="30" as="geometry" />
        </mxCell>
        <mxCell id="dP_4IrJM_J5E9Byek_nk-7" value="&lt;b style=&quot;border-color: var(--border-color); font-family: Verdana; text-decoration-line: underline; font-style: italic;&quot;&gt;[&lt;/b&gt;noSpace&lt;b style=&quot;border-color: var(--border-color); font-family: Verdana; text-decoration-line: underline; font-style: italic;&quot;&gt;]&lt;/b&gt;" style="text;html=1;strokeColor=none;fillColor=none;align=center;verticalAlign=middle;whiteSpace=wrap;rounded=0;" parent="u2iDfoAtIh-SDBU8Mwto-1" vertex="1">
          <mxGeometry x="460" width="60" height="30" as="geometry" />
        </mxCell>
        <mxCell id="7baba1c4bc27f4b0-8" value=":ServiceAcessGui-simulator&lt;br&gt;.Home" style="shape=umlLifeline;perimeter=lifelinePerimeter;whiteSpace=wrap;html=1;container=1;collapsible=0;recursiveResize=0;outlineConnect=0;rounded=1;shadow=0;comic=0;labelBackgroundColor=none;strokeWidth=1;fontFamily=Verdana;fontSize=12;align=center;size=50;" parent="1" vertex="1">
          <mxGeometry x="100" y="80" width="100" height="580" as="geometry" />
        </mxCell>
        <mxCell id="7baba1c4bc27f4b0-9" value="" style="html=1;points=[];perimeter=orthogonalPerimeter;rounded=0;shadow=0;comic=0;labelBackgroundColor=none;strokeWidth=1;fontFamily=Verdana;fontSize=12;align=center;" parent="7baba1c4bc27f4b0-8" vertex="1">
          <mxGeometry x="45" y="100" width="10" height="440" as="geometry" />
        </mxCell>
        <mxCell id="7baba1c4bc27f4b0-40" value="Possibili interazioni CSS &amp;lt;-&amp;gt;SAG-simulator a seguito di una store request" style="shape=note;whiteSpace=wrap;html=1;size=14;verticalAlign=top;align=left;spacingTop=-6;rounded=0;shadow=0;comic=0;labelBackgroundColor=none;strokeWidth=1;fontFamily=Verdana;fontSize=12" parent="1" vertex="1">
          <mxGeometry x="100" y="30" width="510" height="35" as="geometry" />
        </mxCell>
        <mxCell id="7baba1c4bc27f4b0-4" value=":CSSctx&lt;br&gt;.TicketManager" style="shape=umlLifeline;perimeter=lifelinePerimeter;whiteSpace=wrap;html=1;container=1;collapsible=0;recursiveResize=0;outlineConnect=0;rounded=1;shadow=0;comic=0;labelBackgroundColor=none;strokeWidth=1;fontFamily=Verdana;fontSize=12;align=center;" parent="1" vertex="1">
          <mxGeometry x="890" y="80" width="100" height="680" as="geometry" />
        </mxCell>
        <mxCell id="7baba1c4bc27f4b0-16" value="" style="html=1;points=[];perimeter=orthogonalPerimeter;rounded=0;shadow=0;comic=0;labelBackgroundColor=none;strokeWidth=1;fontFamily=Verdana;fontSize=12;align=center;" parent="7baba1c4bc27f4b0-4" vertex="1">
          <mxGeometry x="45" y="80" width="10" height="400" as="geometry" />
        </mxCell>
        <mxCell id="7baba1c4bc27f4b0-7" value=":CSSctx" style="shape=umlLifeline;perimeter=lifelinePerimeter;whiteSpace=wrap;html=1;container=1;collapsible=0;recursiveResize=0;outlineConnect=0;rounded=1;shadow=0;comic=0;labelBackgroundColor=none;strokeWidth=1;fontFamily=Verdana;fontSize=12;align=center;size=70;points=[];" parent="1" vertex="1">
          <mxGeometry x="350" y="80" width="160" height="580" as="geometry" />
        </mxCell>
        <mxCell id="WGYdtUEUaQrTIStyGSWO-5" value="" style="html=1;points=[];perimeter=orthogonalPerimeter;rounded=0;shadow=0;comic=0;labelBackgroundColor=none;strokeWidth=1;fontFamily=Verdana;fontSize=12;align=center;" parent="7baba1c4bc27f4b0-7" vertex="1">
          <mxGeometry x="77.5" y="90" width="10" height="400" as="geometry" />
        </mxCell>
        <mxCell id="WGYdtUEUaQrTIStyGSWO-10" value="connect" style="html=1;verticalAlign=bottom;endArrow=block;labelBackgroundColor=none;fontFamily=Verdana;fontSize=12;" parent="7baba1c4bc27f4b0-7" edge="1">
          <mxGeometry x="0.653" relative="1" as="geometry">
            <mxPoint x="-195" y="120.8" as="sourcePoint" />
            <mxPoint x="82" y="121" as="targetPoint" />
            <Array as="points" />
            <mxPoint as="offset" />
          </mxGeometry>
        </mxCell>
        <mxCell id="WGYdtUEUaQrTIStyGSWO-15" value="connAccepted" style="html=1;verticalAlign=bottom;endArrow=open;dashed=1;endSize=8;labelBackgroundColor=none;fontFamily=Verdana;fontSize=12;edgeStyle=elbowEdgeStyle;elbow=vertical;" parent="7baba1c4bc27f4b0-7" edge="1">
          <mxGeometry x="-0.1339" relative="1" as="geometry">
            <mxPoint x="-70.00333333333326" y="190" as="targetPoint" />
            <Array as="points">
              <mxPoint x="-43.67" y="190" />
              <mxPoint x="-38.67" y="200" />
            </Array>
            <mxPoint x="70" y="190" as="sourcePoint" />
            <mxPoint as="offset" />
          </mxGeometry>
        </mxCell>
        <mxCell id="WGYdtUEUaQrTIStyGSWO-29" value="&lt;br&gt;&lt;i&gt;&lt;b&gt;loadaccepted&lt;/b&gt;&lt;/i&gt;" style="html=1;verticalAlign=bottom;endArrow=open;dashed=1;endSize=8;labelBackgroundColor=none;fontFamily=Verdana;fontSize=12;edgeStyle=elbowEdgeStyle;elbow=vertical;" parent="7baba1c4bc27f4b0-7" edge="1">
          <mxGeometry x="-0.2272" relative="1" as="geometry">
            <mxPoint x="-75.5" y="430" as="targetPoint" />
            <Array as="points">
              <mxPoint x="30" y="430" />
              <mxPoint x="-139" y="460" />
            </Array>
            <mxPoint x="292" y="430" as="sourcePoint" />
            <mxPoint as="offset" />
          </mxGeometry>
        </mxCell>
        <mxCell id="7baba1c4bc27f4b0-5" value=":CSSctx&lt;br&gt;.ColdRoomManger" style="shape=umlLifeline;perimeter=lifelinePerimeter;whiteSpace=wrap;html=1;container=1;collapsible=0;recursiveResize=0;outlineConnect=0;rounded=1;shadow=0;comic=0;labelBackgroundColor=none;strokeWidth=1;fontFamily=Verdana;fontSize=12;align=center;size=70;" parent="1" vertex="1">
          <mxGeometry x="770" y="80" width="100" height="545" as="geometry" />
        </mxCell>
        <mxCell id="7baba1c4bc27f4b0-19" value="" style="html=1;points=[];perimeter=orthogonalPerimeter;rounded=0;shadow=0;comic=0;labelBackgroundColor=none;strokeWidth=1;fontFamily=Verdana;fontSize=12;align=center;" parent="7baba1c4bc27f4b0-5" vertex="1">
          <mxGeometry x="45" y="80" width="10" height="390" as="geometry" />
        </mxCell>
        <mxCell id="WGYdtUEUaQrTIStyGSWO-11" value="verifyspace" style="html=1;verticalAlign=bottom;endArrow=block;labelBackgroundColor=none;fontFamily=Verdana;fontSize=12;" parent="1" target="7baba1c4bc27f4b0-5" edge="1">
          <mxGeometry x="0.005" relative="1" as="geometry">
            <mxPoint x="640" y="320" as="sourcePoint" />
            <mxPoint x="920" y="330" as="targetPoint" />
            <Array as="points">
              <mxPoint x="750" y="320" />
            </Array>
            <mxPoint x="1" as="offset" />
          </mxGeometry>
        </mxCell>
        <mxCell id="dP_4IrJM_J5E9Byek_nk-1" value="storeRequest" style="html=1;verticalAlign=bottom;endArrow=block;labelBackgroundColor=none;fontFamily=Verdana;fontSize=12;entryX=0.494;entryY=0.3;entryDx=0;entryDy=0;entryPerimeter=0;" parent="1" source="7baba1c4bc27f4b0-2" target="7baba1c4bc27f4b0-3" edge="1">
          <mxGeometry x="0.653" relative="1" as="geometry">
            <mxPoint x="350" y="300" as="sourcePoint" />
            <mxPoint x="627" y="300.2" as="targetPoint" />
            <Array as="points" />
            <mxPoint as="offset" />
          </mxGeometry>
        </mxCell>
      </root>
    </mxGraphModel>
  </diagram>
  <diagram id="quIMlvd18_bg2elPpY9j" name="Pagina-2">
    <mxGraphModel dx="3044" dy="2751" grid="1" gridSize="10" guides="1" tooltips="1" connect="1" arrows="1" fold="1" page="1" pageScale="1" pageWidth="827" pageHeight="1169" math="0" shadow="0">
      <root>
        <mxCell id="0" />
        <mxCell id="1" parent="0" />
        <mxCell id="N2O-ApHA6fofq8clF46Y-1" value=":ServiceAcessGui-simulator" style="shape=umlLifeline;perimeter=lifelinePerimeter;whiteSpace=wrap;html=1;container=1;collapsible=0;recursiveResize=0;outlineConnect=0;rounded=1;shadow=0;comic=0;labelBackgroundColor=none;strokeWidth=1;fontFamily=Verdana;fontSize=12;align=center;size=130;" parent="1" vertex="1">
          <mxGeometry x="270" y="50" width="144" height="870" as="geometry" />
        </mxCell>
        <mxCell id="N2O-ApHA6fofq8clF46Y-2" value="" style="html=1;points=[];perimeter=orthogonalPerimeter;rounded=0;shadow=0;comic=0;labelBackgroundColor=none;strokeWidth=1;fontFamily=Verdana;fontSize=12;align=center;" parent="N2O-ApHA6fofq8clF46Y-1" vertex="1">
          <mxGeometry x="67" y="210" width="10" height="660" as="geometry" />
        </mxCell>
        <mxCell id="gZ9sGHbwMtrVvCfFXNdp-1" value=":CSSctx&lt;br&gt;.ColdStorageService" style="shape=umlLifeline;perimeter=lifelinePerimeter;whiteSpace=wrap;html=1;container=1;collapsible=0;recursiveResize=0;outlineConnect=0;rounded=1;shadow=0;comic=0;labelBackgroundColor=none;strokeWidth=1;fontFamily=Verdana;fontSize=12;align=center;size=100;points=[];" parent="1" vertex="1">
          <mxGeometry x="470" y="60" width="160" height="870" as="geometry" />
        </mxCell>
        <mxCell id="gZ9sGHbwMtrVvCfFXNdp-2" value="" style="html=1;points=[];perimeter=orthogonalPerimeter;rounded=0;shadow=0;comic=0;labelBackgroundColor=none;strokeWidth=1;fontFamily=Verdana;fontSize=12;align=center;" parent="gZ9sGHbwMtrVvCfFXNdp-1" vertex="1">
          <mxGeometry x="75" y="160" width="10" height="710" as="geometry" />
        </mxCell>
        <mxCell id="rTRTFVOLgOanxBbqwZ-_-3" value=":CSSctx&lt;br&gt;.ticketmanager" style="shape=umlLifeline;perimeter=lifelinePerimeter;whiteSpace=wrap;html=1;container=1;collapsible=0;recursiveResize=0;outlineConnect=0;rounded=1;shadow=0;comic=0;labelBackgroundColor=none;strokeWidth=1;fontFamily=Verdana;fontSize=12;align=center;size=100;points=[];" parent="1" vertex="1">
          <mxGeometry x="890" y="50" width="160" height="870" as="geometry" />
        </mxCell>
        <mxCell id="rTRTFVOLgOanxBbqwZ-_-4" value="" style="html=1;points=[];perimeter=orthogonalPerimeter;rounded=0;shadow=0;comic=0;labelBackgroundColor=none;strokeWidth=1;fontFamily=Verdana;fontSize=12;align=center;" parent="rTRTFVOLgOanxBbqwZ-_-3" vertex="1">
          <mxGeometry x="75" y="160" width="10" height="710" as="geometry" />
        </mxCell>
        <mxCell id="rTRTFVOLgOanxBbqwZ-_-17" value="moveRobot(port)" style="html=1;verticalAlign=bottom;endArrow=block;labelBackgroundColor=none;fontFamily=Verdana;fontSize=12;entryX=-0.064;entryY=0.767;entryDx=0;entryDy=0;entryPerimeter=0;" parent="rTRTFVOLgOanxBbqwZ-_-3" edge="1" target="rTRTFVOLgOanxBbqwZ-_-13">
          <mxGeometry x="0.1445" relative="1" as="geometry">
            <mxPoint x="270" y="700" as="sourcePoint" />
            <mxPoint x="600" y="700" as="targetPoint" />
            <Array as="points" />
            <mxPoint as="offset" />
          </mxGeometry>
        </mxCell>
        <mxCell id="rTRTFVOLgOanxBbqwZ-_-8" value=":CSSctx&lt;br&gt;.TransportTrolley" style="shape=umlLifeline;perimeter=lifelinePerimeter;whiteSpace=wrap;html=1;container=1;collapsible=0;recursiveResize=0;outlineConnect=0;rounded=1;shadow=0;comic=0;labelBackgroundColor=none;strokeWidth=1;fontFamily=Verdana;fontSize=12;align=center;size=100;points=[];" parent="1" vertex="1">
          <mxGeometry x="1081" y="50" width="160" height="860" as="geometry" />
        </mxCell>
        <mxCell id="rTRTFVOLgOanxBbqwZ-_-9" value="" style="html=1;points=[];perimeter=orthogonalPerimeter;rounded=0;shadow=0;comic=0;labelBackgroundColor=none;strokeWidth=1;fontFamily=Verdana;fontSize=12;align=center;" parent="rTRTFVOLgOanxBbqwZ-_-8" vertex="1">
          <mxGeometry x="75" y="160" width="10" height="690" as="geometry" />
        </mxCell>
        <mxCell id="rTRTFVOLgOanxBbqwZ-_-12" value=":Basicrobot" style="shape=umlLifeline;perimeter=lifelinePerimeter;whiteSpace=wrap;html=1;container=1;collapsible=0;recursiveResize=0;outlineConnect=0;rounded=1;shadow=0;comic=0;labelBackgroundColor=none;strokeWidth=1;fontFamily=Verdana;fontSize=12;align=center;size=100;points=[];" parent="1" vertex="1">
          <mxGeometry x="1270" y="60" width="160" height="860" as="geometry" />
        </mxCell>
        <mxCell id="rTRTFVOLgOanxBbqwZ-_-13" value="" style="html=1;points=[];perimeter=orthogonalPerimeter;rounded=0;shadow=0;comic=0;labelBackgroundColor=none;strokeWidth=1;fontFamily=Verdana;fontSize=12;align=center;" parent="rTRTFVOLgOanxBbqwZ-_-12" vertex="1">
          <mxGeometry x="75" y="160" width="10" height="690" as="geometry" />
        </mxCell>
        <mxCell id="cg7oMHLb6mgpNHiS1ckj-4" value="&lt;font style=&quot;font-size: 24px;&quot;&gt;Diagramma a seguito di una richiesta verifyTicket: FASE 1(chargetaken/invalidticket) FASE2 invia(SAG-sim) di loaddone al ColdStorageService&lt;/font&gt;" style="text;html=1;strokeColor=none;fillColor=none;align=center;verticalAlign=middle;whiteSpace=wrap;rounded=0;" parent="1" vertex="1">
          <mxGeometry y="-130" width="1520" height="110" as="geometry" />
        </mxCell>
        <mxCell id="cg7oMHLb6mgpNHiS1ckj-5" value="R:chargetaken/invalidticket" style="shape=umlFrame;whiteSpace=wrap;html=1;pointerEvents=0;recursiveResize=0;container=1;collapsible=0;width=170;" parent="1" vertex="1">
          <mxGeometry x="240" y="480" width="1210" height="400" as="geometry" />
        </mxCell>
        <mxCell id="cg7oMHLb6mgpNHiS1ckj-6" value="invalidticket" style="text;html=1;" parent="cg7oMHLb6mgpNHiS1ckj-5" vertex="1">
          <mxGeometry width="100" height="20" relative="1" as="geometry">
            <mxPoint x="20" y="40" as="offset" />
          </mxGeometry>
        </mxCell>
        <mxCell id="cg7oMHLb6mgpNHiS1ckj-7" value="" style="line;strokeWidth=1;dashed=1;labelPosition=center;verticalLabelPosition=bottom;align=left;verticalAlign=top;spacingLeft=20;spacingTop=15;html=1;whiteSpace=wrap;" parent="cg7oMHLb6mgpNHiS1ckj-5" vertex="1">
          <mxGeometry y="120" width="1390" height="10" as="geometry" />
        </mxCell>
        <mxCell id="rTRTFVOLgOanxBbqwZ-_-7" value="" style="html=1;verticalAlign=bottom;endArrow=open;dashed=1;endSize=8;labelBackgroundColor=none;fontFamily=Verdana;fontSize=12;edgeStyle=elbowEdgeStyle;elbow=horizontal;exitX=0.189;exitY=0.465;exitDx=0;exitDy=0;exitPerimeter=0;" parent="cg7oMHLb6mgpNHiS1ckj-5" edge="1" source="rTRTFVOLgOanxBbqwZ-_-4">
          <mxGeometry x="0.4307" relative="1" as="geometry">
            <mxPoint x="110" y="60" as="targetPoint" />
            <Array as="points">
              <mxPoint x="296.3299999999999" y="60" />
              <mxPoint x="301.3299999999999" y="70" />
            </Array>
            <mxPoint x="510" y="60" as="sourcePoint" />
            <mxPoint x="1" as="offset" />
          </mxGeometry>
        </mxCell>
        <mxCell id="cg7oMHLb6mgpNHiS1ckj-8" value="chargetaken" style="text;html=1;align=center;verticalAlign=middle;resizable=0;points=[];autosize=1;strokeColor=none;fillColor=none;" parent="cg7oMHLb6mgpNHiS1ckj-5" vertex="1">
          <mxGeometry x="10" y="130" width="90" height="30" as="geometry" />
        </mxCell>
        <mxCell id="GTj69KNL2VtBqAuHhiqG-4" value="invalidticket" style="text;html=1;strokeColor=none;fillColor=none;align=center;verticalAlign=middle;whiteSpace=wrap;rounded=0;" vertex="1" parent="cg7oMHLb6mgpNHiS1ckj-5">
          <mxGeometry x="620" y="40" width="60" height="30" as="geometry" />
        </mxCell>
        <mxCell id="kEfHReS5XdMBzArzRV5Z-1" value="loaddone" style="html=1;verticalAlign=bottom;endArrow=block;labelBackgroundColor=none;fontFamily=Verdana;fontSize=12;exitX=1.111;exitY=0.353;exitDx=0;exitDy=0;exitPerimeter=0;entryX=-0.144;entryY=0.652;entryDx=0;entryDy=0;entryPerimeter=0;" parent="cg7oMHLb6mgpNHiS1ckj-5" edge="1" target="rTRTFVOLgOanxBbqwZ-_-9">
          <mxGeometry x="-0.6" relative="1" as="geometry">
            <mxPoint x="109.98999999999978" y="180.0000000000001" as="sourcePoint" />
            <mxPoint x="910" y="180" as="targetPoint" />
            <Array as="points" />
            <mxPoint as="offset" />
          </mxGeometry>
        </mxCell>
        <mxCell id="rTRTFVOLgOanxBbqwZ-_-19" value="depositdone" style="html=1;verticalAlign=bottom;endArrow=open;dashed=1;endSize=8;labelBackgroundColor=none;fontFamily=Verdana;fontSize=12;edgeStyle=elbowEdgeStyle;elbow=horizontal;entryX=1.2;entryY=0.817;entryDx=0;entryDy=0;entryPerimeter=0;" parent="cg7oMHLb6mgpNHiS1ckj-5" edge="1" target="GTj69KNL2VtBqAuHhiqG-14">
          <mxGeometry x="-0.6604" relative="1" as="geometry">
            <mxPoint x="550" y="310" as="targetPoint" />
            <Array as="points">
              <mxPoint x="780" y="310" />
            </Array>
            <mxPoint x="913.5" y="310" as="sourcePoint" />
            <mxPoint x="1" as="offset" />
          </mxGeometry>
        </mxCell>
        <mxCell id="4cLTLOausn-tMqRDsMKk-3" value="connect" style="html=1;verticalAlign=bottom;endArrow=block;labelBackgroundColor=none;fontFamily=Verdana;fontSize=12;exitX=0.886;exitY=0.031;exitDx=0;exitDy=0;exitPerimeter=0;entryX=0.019;entryY=0.086;entryDx=0;entryDy=0;entryPerimeter=0;" parent="1" target="gZ9sGHbwMtrVvCfFXNdp-2" edge="1" source="N2O-ApHA6fofq8clF46Y-2">
          <mxGeometry x="-0.4568" relative="1" as="geometry">
            <mxPoint x="350" y="280" as="sourcePoint" />
            <mxPoint x="540" y="280" as="targetPoint" />
            <Array as="points" />
            <mxPoint as="offset" />
          </mxGeometry>
        </mxCell>
        <mxCell id="4cLTLOausn-tMqRDsMKk-4" value="connAccepted" style="html=1;verticalAlign=bottom;endArrow=open;dashed=1;endSize=8;labelBackgroundColor=none;fontFamily=Verdana;fontSize=12;edgeStyle=elbowEdgeStyle;elbow=vertical;entryX=1.073;entryY=0.092;entryDx=0;entryDy=0;entryPerimeter=0;exitX=-0.013;exitY=0.14;exitDx=0;exitDy=0;exitPerimeter=0;" parent="1" target="N2O-ApHA6fofq8clF46Y-2" edge="1" source="gZ9sGHbwMtrVvCfFXNdp-2">
          <mxGeometry x="-0.441" relative="1" as="geometry">
            <mxPoint x="350" y="320" as="targetPoint" />
            <Array as="points">
              <mxPoint x="431.33" y="320" />
              <mxPoint x="436.33" y="330" />
            </Array>
            <mxPoint x="540" y="320" as="sourcePoint" />
            <mxPoint as="offset" />
          </mxGeometry>
        </mxCell>
        <mxCell id="GTj69KNL2VtBqAuHhiqG-13" value=":CSSctx&lt;br&gt;.coldroommanager" style="shape=umlLifeline;perimeter=lifelinePerimeter;whiteSpace=wrap;html=1;container=1;collapsible=0;recursiveResize=0;outlineConnect=0;rounded=1;shadow=0;comic=0;labelBackgroundColor=none;strokeWidth=1;fontFamily=Verdana;fontSize=12;align=center;size=100;points=[];" vertex="1" parent="1">
          <mxGeometry x="700" y="50" width="160" height="870" as="geometry" />
        </mxCell>
        <mxCell id="GTj69KNL2VtBqAuHhiqG-14" value="" style="html=1;points=[];perimeter=orthogonalPerimeter;rounded=0;shadow=0;comic=0;labelBackgroundColor=none;strokeWidth=1;fontFamily=Verdana;fontSize=12;align=center;" vertex="1" parent="GTj69KNL2VtBqAuHhiqG-13">
          <mxGeometry x="75" y="160" width="10" height="710" as="geometry" />
        </mxCell>
        <mxCell id="rTRTFVOLgOanxBbqwZ-_-15" value="moveRobot(indoor)" style="html=1;verticalAlign=bottom;endArrow=block;labelBackgroundColor=none;fontFamily=Verdana;fontSize=12;exitX=1.002;exitY=0.667;exitDx=0;exitDy=0;exitPerimeter=0;entryX=-0.017;entryY=0.652;entryDx=0;entryDy=0;entryPerimeter=0;" parent="1" edge="1" target="rTRTFVOLgOanxBbqwZ-_-13" source="rTRTFVOLgOanxBbqwZ-_-9">
          <mxGeometry x="0.1189" relative="1" as="geometry">
            <mxPoint x="1170" y="670" as="sourcePoint" />
            <mxPoint x="1490" y="670" as="targetPoint" />
            <Array as="points" />
            <mxPoint x="1" as="offset" />
          </mxGeometry>
        </mxCell>
        <mxCell id="rTRTFVOLgOanxBbqwZ-_-14" value="moverobotdone" style="html=1;verticalAlign=bottom;endArrow=open;dashed=1;endSize=8;labelBackgroundColor=none;fontFamily=Verdana;fontSize=12;edgeStyle=elbowEdgeStyle;elbow=horizontal;entryX=1.05;entryY=0.696;entryDx=0;entryDy=0;entryPerimeter=0;exitX=-0.307;exitY=0.681;exitDx=0;exitDy=0;exitPerimeter=0;" parent="1" source="rTRTFVOLgOanxBbqwZ-_-13" edge="1" target="rTRTFVOLgOanxBbqwZ-_-9">
          <mxGeometry x="-0.0195" relative="1" as="geometry">
            <mxPoint x="1170" y="690" as="targetPoint" />
            <Array as="points">
              <mxPoint x="1340" y="691" />
            </Array>
            <mxPoint x="1470" y="690" as="sourcePoint" />
            <mxPoint x="1" as="offset" />
          </mxGeometry>
        </mxCell>
        <mxCell id="rTRTFVOLgOanxBbqwZ-_-18" value="moverobotdone" style="html=1;verticalAlign=bottom;endArrow=open;dashed=1;endSize=8;labelBackgroundColor=none;fontFamily=Verdana;fontSize=12;edgeStyle=elbowEdgeStyle;elbow=horizontal;exitX=-0.025;exitY=0.811;exitDx=0;exitDy=0;exitPerimeter=0;entryX=1.072;entryY=0.825;entryDx=0;entryDy=0;entryPerimeter=0;" parent="1" edge="1" target="rTRTFVOLgOanxBbqwZ-_-9" source="rTRTFVOLgOanxBbqwZ-_-13">
          <mxGeometry x="-0.3725" relative="1" as="geometry">
            <mxPoint x="1170" y="779" as="targetPoint" />
            <Array as="points" />
            <mxPoint x="1270" y="779" as="sourcePoint" />
            <mxPoint as="offset" />
          </mxGeometry>
        </mxCell>
        <mxCell id="GTj69KNL2VtBqAuHhiqG-7" value="verifyticket" style="html=1;verticalAlign=bottom;endArrow=block;labelBackgroundColor=none;fontFamily=Verdana;fontSize=12;exitX=1.041;exitY=0.182;exitDx=0;exitDy=0;exitPerimeter=0;" edge="1" parent="1" source="N2O-ApHA6fofq8clF46Y-2" target="rTRTFVOLgOanxBbqwZ-_-3">
          <mxGeometry x="-0.6" relative="1" as="geometry">
            <mxPoint x="350" y="380" as="sourcePoint" />
            <mxPoint x="1115.0100000000002" y="380.40999999999985" as="targetPoint" />
            <Array as="points" />
            <mxPoint as="offset" />
          </mxGeometry>
        </mxCell>
        <mxCell id="rTRTFVOLgOanxBbqwZ-_-16" value="goaway" style="html=1;verticalAlign=bottom;endArrow=open;dashed=1;endSize=8;labelBackgroundColor=none;fontFamily=Verdana;fontSize=12;edgeStyle=elbowEdgeStyle;elbow=horizontal;entryX=1.096;entryY=0.682;entryDx=0;entryDy=0;entryPerimeter=0;exitX=-0.257;exitY=0.724;exitDx=0;exitDy=0;exitPerimeter=0;" parent="1" edge="1" target="N2O-ApHA6fofq8clF46Y-2" source="rTRTFVOLgOanxBbqwZ-_-9">
          <mxGeometry x="-0.6487" relative="1" as="geometry">
            <mxPoint x="350" y="710" as="targetPoint" />
            <Array as="points">
              <mxPoint x="550.3299999999999" y="710" />
              <mxPoint x="555.3299999999999" y="720" />
            </Array>
            <mxPoint x="1150" y="710" as="sourcePoint" />
            <mxPoint as="offset" />
          </mxGeometry>
        </mxCell>
      </root>
    </mxGraphModel>
  </diagram>
</mxfile>
